<?xml version="1.0" encoding="UTF-8" standalone="no"?>
<svg viewBox="0 0 500 500" xmlns="http://www.w3.org/2000/svg">
  <!-- Background Circle -->
  <circle cx="250" cy="250" r="240" fill="#202945" />
  <circle cx="250" cy="250" r="220" fill="#111827" />
  
  <!-- Clearer PS Letters with Fill -->
  <path d="M130,170 C130,170 200,170 240,170 C320,170 345,210 345,250 C345,290 320,330 240,330 L180,330 L180,380 C180,380 240,380 280,380 C325,380 345,350 345,330" 
        fill="none" stroke="#7161EF" stroke-width="40" stroke-linecap="round" stroke-linejoin="round" />
        
  <!-- White fill for better visibility -->
  <path d="M130,170 C130,170 200,170 240,170 C320,170 345,210 345,250 C345,290 320,330 240,330 L180,330 L180,380 C180,380 240,380 280,380 C325,380 345,350 345,330" 
        fill="none" stroke="white" stroke-width="25" stroke-linecap="round" stroke-linejoin="round" />
  
  <!-- Panther Ear Accent -->
  <path d="M120,130 L140,80 L170,105 Z" fill="#7161EF" />
  <path d="M365,130 L345,80 L315,105 Z" fill="#7161EF" />
  
  <!-- Claw Marks -->
  <path d="M390,360 L420,335 M380,380 L410,355 M370,400 L400,375" 
        stroke="#7161EF" stroke-width="6" stroke-linecap="round" />
  
  <!-- Inner Glow Effect -->
  <circle cx="250" cy="250" r="190" fill="none" stroke="#5D4ED3" stroke-width="2" opacity="0.6" />
  <circle cx="250" cy="250" r="180" fill="none" stroke="#5D4ED3" stroke-width="1" opacity="0.4" />
  
  <!-- PS Text - Alternative Clear Version -->
  <text x="165" y="310" font-family="Arial, sans-serif" font-weight="bold" font-size="180" fill="#7161EF" stroke="white" stroke-width="8">PS</text>
</svg>